<?xml version="1.0" encoding="utf-8"?>
<svg xmlns="http://www.w3.org/2000/svg" fill="none" height="33" viewBox="0 0 169 33" width="169">
<path d="M17.619 0.91588V13.8785C17.619 14.3899 17.1916 14.797 16.6787 14.797H14.7982C14.2747 14.797 13.858 14.3795 13.858 13.8785V5.06977C13.858 4.41224 13.1742 3.96345 12.5545 4.21394L0.587656 9.01491C0.235062 9.16103 0 9.49501 0 9.87074V31.0368C0 31.5482 0.427386 31.9552 0.940249 31.9552H12.9071C13.4306 31.9552 13.8473 31.5377 13.8473 31.0368V22.9482C13.8473 22.4368 14.2747 22.0297 14.7876 22.0297H16.6681C17.1916 22.0297 17.6083 22.4472 17.6083 22.9482V31.0368C17.6083 31.5482 18.0357 31.9552 18.5486 31.9552H30.5154C31.0389 31.9552 31.4556 31.5377 31.4556 31.0368V5.72729C31.4556 5.35156 31.2205 5.01758 30.868 4.87146L18.9011 0.0704918C18.3028 -0.179994 17.619 0.268793 17.619 0.91588Z" fill="#3ECFAF"/>
<path d="M63.9687 27.9249V31.1708C63.9687 31.5778 63.6268 31.9118 63.2101 31.9118H48.5721C48.1554 31.9118 47.8135 31.5778 47.8135 31.1708V8.47051C47.8135 8.06347 48.1554 7.72949 48.5721 7.72949H52.2903C52.707 7.72949 53.049 8.06347 53.049 8.47051V27.1734H63.2101C63.6268 27.1839 63.9687 27.5074 63.9687 27.9249Z" fill="white"/>
<path d="M84.2295 28.1463V31.2565C84.2295 31.6218 83.9303 31.914 83.5563 31.914H81.7506C79.7633 31.914 78.6841 31.2669 78.3636 29.764C78.3315 29.6179 78.1285 29.5761 78.043 29.7014C77.0814 31.2773 75.0941 32.2897 72.3802 32.2897C68.4162 32.2897 65.9053 30.1501 65.9053 26.8312C65.9053 23.4497 68.523 21.3727 73.5448 21.3727H77.6477V20.8509C77.6477 18.92 76.654 18.0225 74.5705 18.0225C73.0213 18.0225 71.5788 18.5548 70.3928 19.5463C70.115 19.7759 69.6983 19.7863 69.4419 19.5254L67.4439 17.4693C67.1981 17.2188 67.1874 16.8118 67.4332 16.5717C69.1961 14.8392 71.8994 13.8164 74.9659 13.8164C79.8167 13.8164 82.4985 16.3734 82.4985 20.6526V27.3844C82.4985 27.9688 82.6802 28.1463 83.1717 28.1463H84.2295V28.1463ZM77.6477 25.0361V24.4829H74.047C71.8139 24.4829 70.863 25.1718 70.863 26.5599C70.863 27.9062 71.7818 28.6681 73.5875 28.6681C76.0557 28.6681 77.6477 27.2174 77.6477 25.0361Z" fill="white"/>
<path d="M108.449 8.471V31.1713C108.449 31.5783 108.107 31.9123 107.691 31.9123H104.004C103.588 31.9123 103.246 31.5783 103.246 31.1713V21.8929H93.0419C92.6252 21.8929 92.2833 22.2268 92.2833 22.6339V31.1713C92.2833 31.5783 91.9414 31.9123 91.5247 31.9123H87.8065C87.3898 31.9123 87.0479 31.5783 87.0479 31.1713V8.471C87.0479 8.06396 87.3898 7.72998 87.8065 7.72998H91.5247C91.9414 7.72998 92.2833 8.06396 92.2833 8.471V17.1962H102.487C102.904 17.1962 103.246 16.8623 103.246 16.4552V8.471C103.246 8.06396 103.588 7.72998 104.004 7.72998H107.691C108.118 7.72998 108.449 8.06396 108.449 8.471Z" fill="white"/>
<path d="M149.297 14.9634V31.2449C149.297 31.6102 148.987 31.9129 148.613 31.9129H145.066C144.692 31.9129 144.382 31.6102 144.382 31.2449V29.3245C143.389 31.1928 141.23 32.4034 138.58 32.4034C134.798 32.4034 132.672 30.0238 132.672 25.8386V14.9634C132.672 14.5981 132.982 14.2954 133.356 14.2954H137.01C137.384 14.2954 137.694 14.5981 137.694 14.9634V24.5549C137.694 26.8301 138.442 27.9364 140.525 27.9364C142.822 27.9364 144.275 26.6214 144.275 24.2418V14.9634C144.275 14.5981 144.585 14.2954 144.959 14.2954H148.613C148.998 14.2954 149.297 14.5981 149.297 14.9634Z" fill="white"/>
<path d="M152.558 28.758L154.15 26.6601C154.396 26.3366 154.866 26.2635 155.186 26.514C156.618 27.6203 158.605 28.3196 160.571 28.3196C162.345 28.3196 163.296 27.7351 163.296 26.8376C163.296 26.0757 162.655 25.5956 161.138 25.2512L158.135 24.5623C154.353 23.6648 152.868 21.9322 152.868 19.5213C152.868 16.1711 155.699 13.8228 160.475 13.8228C163.339 13.8228 165.86 14.6681 167.527 16.0458C167.826 16.2963 167.89 16.7242 167.655 17.0373L166.031 19.1978C165.796 19.5109 165.347 19.5735 165.016 19.3543C163.478 18.3628 161.918 17.9349 160.411 17.9349C158.68 17.9349 157.868 18.488 157.868 19.3543C157.868 19.9805 158.402 20.4293 159.994 20.7737L163.104 21.4939C166.961 22.3914 168.339 24.124 168.339 26.5766C168.339 30.1356 165.476 32.4109 160.561 32.4109C157.291 32.4109 154.449 31.4089 152.643 29.7077C152.355 29.4468 152.334 29.0398 152.558 28.758Z" fill="white"/>
<path d="M130.095 28.1463V31.2565C130.095 31.6218 129.796 31.914 129.422 31.914H127.616C125.629 31.914 124.549 31.2669 124.229 29.764C124.197 29.6179 123.994 29.5761 123.908 29.7014C122.947 31.2773 120.959 32.2897 118.245 32.2897C114.281 32.2897 111.771 30.1501 111.771 26.8312C111.771 23.4497 114.388 21.3727 119.41 21.3727H123.513V20.8509C123.513 18.92 122.519 18.0225 120.436 18.0225C118.886 18.0225 117.444 18.5548 116.258 19.5463C115.98 19.7759 115.564 19.7863 115.307 19.5254L113.309 17.4693C113.063 17.2188 113.053 16.8118 113.298 16.5717C115.061 14.8392 117.765 13.8164 120.831 13.8164C125.682 13.8164 128.364 16.3734 128.364 20.6526V27.3844C128.364 27.9688 128.545 28.1463 129.037 28.1463H130.095V28.1463ZM123.513 25.0361V24.4829H119.902C117.668 24.4829 116.717 25.1718 116.717 26.5599C116.717 27.9062 117.636 28.6681 119.442 28.6681C121.921 28.6681 123.513 27.2174 123.513 25.0361Z" fill="white"/>
</svg>