<?xml version="1.0" encoding="utf-8"?>
<svg xmlns="http://www.w3.org/2000/svg" width="30" height="31" viewBox="0 0 30 31" fill="none">
<path d="M20.6379 26.4373C20.2678 26.4366 19.9033 26.3466 19.5754 26.1749L15.0004 23.7748L10.4254 26.1749C10.0514 26.3728 9.62939 26.462 9.20727 26.4321C8.78514 26.4022 8.37986 26.2546 8.03745 26.0059C7.69504 25.7572 7.42923 25.4175 7.27023 25.0253C7.11122 24.6332 7.06539 24.2043 7.13794 23.7873L8.01294 18.6873L4.26294 15.0748C3.95972 14.7806 3.74497 14.4072 3.64301 13.9972C3.54106 13.5871 3.55598 13.1567 3.68609 12.7547C3.81619 12.3526 4.05628 11.9951 4.37916 11.7225C4.70203 11.4499 5.09479 11.2732 5.51294 11.2123L10.6754 10.4998L12.9629 5.86235C13.152 5.48455 13.443 5.16722 13.8031 4.9463C14.1632 4.72539 14.578 4.6097 15.0004 4.61235C15.4229 4.6097 15.8377 4.72539 16.1977 4.9463C16.5578 5.16722 16.8489 5.48455 17.0379 5.86235L19.3254 10.4998L24.4379 11.2498C24.8561 11.3107 25.2488 11.4874 25.5717 11.76C25.8946 12.0326 26.1347 12.3901 26.2648 12.7921C26.3949 13.1942 26.4098 13.6246 26.3079 14.0347C26.2059 14.4447 25.9912 14.8181 25.6879 15.1123L21.9379 18.7248L22.8129 23.8248C22.8672 24.1493 22.8504 24.4816 22.7638 24.7989C22.6772 25.1162 22.5229 25.4109 22.3114 25.6628C22.0999 25.9147 21.8363 26.1177 21.5388 26.2579C21.2412 26.3981 20.9168 26.4721 20.5879 26.4748L20.6379 26.4373ZM15.0004 21.7498C15.1517 21.7517 15.3009 21.7857 15.4379 21.8498L20.4379 24.4874C20.4997 24.5262 20.5712 24.5468 20.6442 24.5468C20.7172 24.5468 20.7887 24.5262 20.8504 24.4874C20.9098 24.4432 20.9561 24.384 20.9847 24.3158C21.0133 24.2477 21.0231 24.1731 21.0129 24.0998L20.0504 18.5123C20.0257 18.3639 20.0366 18.2116 20.0823 18.0682C20.1279 17.9248 20.207 17.7942 20.3129 17.6873L24.3754 13.7373C24.4281 13.6868 24.4654 13.6225 24.4831 13.5518C24.5007 13.481 24.4981 13.4067 24.4754 13.3373C24.4536 13.2672 24.4129 13.2045 24.3578 13.156C24.3027 13.1075 24.2353 13.0751 24.1629 13.0623L18.5629 12.2498C18.4145 12.2294 18.2732 12.1733 18.1513 12.0862C18.0293 11.9991 17.9304 11.8837 17.8629 11.7498L15.3629 6.67485C15.3362 6.6015 15.2864 6.53876 15.2211 6.49596C15.1558 6.45317 15.0784 6.43261 15.0004 6.43735C14.9278 6.43503 14.856 6.45389 14.7939 6.49161C14.7317 6.52934 14.6819 6.58432 14.6504 6.64985L12.1379 11.7498C12.0721 11.886 11.9738 12.0039 11.8518 12.0933C11.7297 12.1826 11.5876 12.2407 11.4379 12.2623L5.82544 13.0749C5.75201 13.0847 5.68315 13.1161 5.62753 13.165C5.57191 13.2139 5.53204 13.2783 5.51294 13.3498C5.49027 13.4192 5.48764 13.4935 5.50533 13.5643C5.52302 13.635 5.56032 13.6993 5.61294 13.7499L9.67544 17.6998C9.78143 17.8067 9.8605 17.9373 9.90613 18.0807C9.95177 18.2241 9.96267 18.3764 9.93794 18.5248L8.98794 24.1123C8.97196 24.1845 8.97768 24.2598 9.00436 24.3288C9.03105 24.3977 9.07753 24.4572 9.13794 24.4998C9.19972 24.5387 9.27122 24.5593 9.34419 24.5593C9.41717 24.5593 9.48866 24.5387 9.55044 24.4998L14.5504 21.8623C14.6903 21.7922 14.844 21.7537 15.0004 21.7498Z" fill="#FFD575"/>
<path d="M14.375 4.875L10.625 11.75H5L4.375 13.625L8.75 18.625L7.5 24.875L10 25.5L15.625 22.375V19.875V18V15.5V13V11.75V4.875H14.375Z" fill="#FFD575"/>
</svg>