<svg width="60" height="60" viewBox="0 0 60 60" fill="none" xmlns="http://www.w3.org/2000/svg">
<g filter="url(#filter0_ii_5620_13688)">
<path d="M26.3136 5.13228C28.1246 2.61103 31.8754 2.61103 33.6864 5.13228C34.9474 6.88787 37.2715 7.51062 39.2414 6.62073C42.0703 5.34273 45.3187 7.21817 45.6264 10.3071C45.8406 12.458 47.542 14.1594 49.6929 14.3736C52.7818 14.6813 54.6573 17.9297 53.3793 20.7586C52.4894 22.7285 53.1121 25.0526 54.8677 26.3136C57.389 28.1246 57.389 31.8754 54.8677 33.6864C53.1121 34.9474 52.4894 37.2715 53.3793 39.2414C54.6573 42.0703 52.7818 45.3187 49.6929 45.6264C47.542 45.8406 45.8406 47.542 45.6264 49.6929C45.3187 52.7818 42.0703 54.6573 39.2414 53.3793C37.2715 52.4894 34.9474 53.1121 33.6864 54.8677C31.8754 57.389 28.1246 57.389 26.3136 54.8677C25.0526 53.1121 22.7285 52.4894 20.7586 53.3793C17.9297 54.6573 14.6813 52.7818 14.3736 49.6929C14.1594 47.542 12.458 45.8406 10.3071 45.6264C7.21817 45.3187 5.34273 42.0703 6.62073 39.2414C7.51062 37.2715 6.88787 34.9474 5.13228 33.6864C2.61103 31.8754 2.61103 28.1246 5.13228 26.3136C6.88787 25.0526 7.51062 22.7285 6.62073 20.7586C5.34273 17.9297 7.21817 14.6813 10.3071 14.3736C12.458 14.1594 14.1594 12.458 14.3736 10.3071C14.6813 7.21817 17.9297 5.34273 20.7586 6.62073C22.7285 7.51062 25.0526 6.88787 26.3136 5.13228Z" fill="#157F67"/>
</g>
<path d="M31.6614 17.319V27.2792C31.6614 27.6722 31.3277 27.985 30.9274 27.985H29.4595C29.0508 27.985 28.7256 27.6642 28.7256 27.2792V20.5108C28.7256 20.0055 28.1918 19.6607 27.7081 19.8532L18.3669 23.5421C18.0917 23.6544 17.9082 23.911 17.9082 24.1997V40.4634C17.9082 40.8563 18.2418 41.1691 18.6421 41.1691H27.9833C28.392 41.1691 28.7172 40.8483 28.7172 40.4634V34.2482C28.7172 33.8553 29.0508 33.5425 29.4512 33.5425H30.9191C31.3277 33.5425 31.653 33.8633 31.653 34.2482V40.4634C31.653 40.8563 31.9866 41.1691 32.387 41.1691H41.7281C42.1368 41.1691 42.462 40.8483 42.462 40.4634V21.016C42.462 20.7273 42.2786 20.4707 42.0033 20.3584L32.6622 16.6694C32.1951 16.4769 31.6614 16.8218 31.6614 17.319Z" fill="white"/>
<defs>
<filter id="filter0_ii_5620_13688" x="0.103896" y="0.103896" width="59.7922" height="59.7922" filterUnits="userSpaceOnUse" color-interpolation-filters="sRGB">
<feFlood flood-opacity="0" result="BackgroundImageFix"/>
<feBlend mode="normal" in="SourceGraphic" in2="BackgroundImageFix" result="shape"/>
<feColorMatrix in="SourceAlpha" type="matrix" values="0 0 0 0 0 0 0 0 0 0 0 0 0 0 0 0 0 0 127 0" result="hardAlpha"/>
<feOffset dx="3.13731" dy="3.13731"/>
<feGaussianBlur stdDeviation="1.56866"/>
<feComposite in2="hardAlpha" operator="arithmetic" k2="-1" k3="1"/>
<feColorMatrix type="matrix" values="0 0 0 0 1 0 0 0 0 1 0 0 0 0 1 0 0 0 0.2 0"/>
<feBlend mode="normal" in2="shape" result="effect1_innerShadow_5620_13688"/>
<feColorMatrix in="SourceAlpha" type="matrix" values="0 0 0 0 0 0 0 0 0 0 0 0 0 0 0 0 0 0 127 0" result="hardAlpha"/>
<feOffset dx="-3.13731" dy="-3.13731"/>
<feGaussianBlur stdDeviation="1.56866"/>
<feComposite in2="hardAlpha" operator="arithmetic" k2="-1" k3="1"/>
<feColorMatrix type="matrix" values="0 0 0 0 0 0 0 0 0 0 0 0 0 0 0 0 0 0 0.05 0"/>
<feBlend mode="normal" in2="effect1_innerShadow_5620_13688" result="effect2_innerShadow_5620_13688"/>
</filter>
</defs>
</svg>
